<?xml version="1.0" encoding="UTF-8"?>
<svg xmlns="http://www.w3.org/2000/svg" xmlns:xlink="http://www.w3.org/1999/xlink" width="16px" height="16px" viewBox="0 0 16 16" version="1.1">
<g id="surface1">
<path style="fill-rule:nonzero;fill:rgb(21.176471%,23.921569%,32.156863%);fill-opacity:1;stroke-width:4;stroke-linecap:butt;stroke-linejoin:miter;stroke:rgb(12.941176%,14.509804%,19.607843%);stroke-opacity:1;stroke-miterlimit:4;" d="M 16 2 L 112 2 C 119.71875 2 126 8.28125 126 16 L 126 112 C 126 119.71875 119.71875 126 112 126 L 16 126 C 8.28125 126 2 119.71875 2 112 L 2 16 C 2 8.28125 8.28125 2 16 2 Z M 16 2 " transform="matrix(0.125,0,0,0.125,0,0)"/>
<path style=" stroke:none;fill-rule:nonzero;fill:rgb(100%,100%,100%);fill-opacity:1;" d="M 2.867188 10.035156 L 2.867188 10.453125 C 6.292969 13.433594 9.71875 13.433594 13.144531 10.453125 L 13.144531 10.035156 Z M 2.867188 10.035156 "/>
<path style=" stroke:none;fill-rule:nonzero;fill:rgb(27.843137%,54.901961%,74.901961%);fill-opacity:1;" d="M 2.867188 10.035156 L 4.785156 10.214844 C 4.886719 10.222656 4.949219 10.28125 4.972656 10.390625 L 5.023438 11.234375 L 6.691406 11.363281 L 6.792969 10.59375 C 6.808594 10.5 6.871094 10.4375 6.980469 10.402344 L 9.027344 10.402344 C 9.136719 10.4375 9.199219 10.5 9.214844 10.59375 L 9.316406 11.363281 L 10.984375 11.234375 L 11.035156 10.390625 C 11.058594 10.28125 11.121094 10.222656 11.222656 10.214844 L 13.144531 10.035156 L 13.144531 6.929688 C 13.394531 6.601562 13.628906 6.261719 13.851562 5.910156 C 13.554688 5.410156 13.207031 4.957031 12.800781 4.546875 C 12.441406 4.714844 12.09375 4.910156 11.765625 5.136719 C 11.429688 4.828125 11.058594 4.558594 10.65625 4.332031 C 10.714844 3.902344 10.75 3.472656 10.757812 3.042969 C 10.261719 2.808594 9.742188 2.628906 9.203125 2.511719 C 8.984375 2.875 8.792969 3.25 8.621094 3.636719 C 8.210938 3.578125 7.796875 3.578125 7.386719 3.636719 C 7.21875 3.25 7.023438 2.875 6.804688 2.511719 C 6.265625 2.628906 5.75 2.808594 5.253906 3.042969 C 5.261719 3.472656 5.292969 3.902344 5.351562 4.332031 C 4.949219 4.558594 4.578125 4.828125 4.242188 5.136719 C 3.914062 4.910156 3.570312 4.714844 3.207031 4.546875 C 2.804688 4.957031 2.453125 5.410156 2.160156 5.910156 C 2.378906 6.261719 2.613281 6.601562 2.867188 6.929688 Z M 2.867188 10.453125 L 2.867188 10.945312 C 2.867188 14.429688 13.128906 14.429688 13.128906 10.945312 L 13.128906 10.453125 L 11.4375 10.605469 L 11.375 11.476562 C 11.359375 11.558594 11.300781 11.613281 11.199219 11.640625 L 9.152344 11.777344 C 9.050781 11.777344 8.984375 11.734375 8.949219 11.640625 L 8.824219 10.820312 L 7.183594 10.820312 L 7.058594 11.640625 C 7.023438 11.734375 6.957031 11.777344 6.855469 11.777344 L 4.808594 11.640625 C 4.710938 11.613281 4.648438 11.558594 4.632812 11.476562 L 4.570312 10.605469 Z M 2.867188 10.453125 "/>
<path style=" stroke:none;fill-rule:nonzero;fill:rgb(100%,100%,100%);fill-opacity:1;" d="M 7.636719 9.117188 C 7.675781 9.542969 8.332031 9.542969 8.371094 9.117188 L 8.371094 8.03125 C 8.332031 7.601562 7.675781 7.601562 7.636719 8.03125 Z M 7.636719 9.117188 "/>
<path style=" stroke:none;fill-rule:nonzero;fill:rgb(100%,100%,100%);fill-opacity:1;" d="M 11.828125 8.179688 C 11.828125 8.808594 11.320312 9.316406 10.695312 9.316406 C 10.066406 9.316406 9.558594 8.808594 9.558594 8.179688 C 9.558594 7.554688 10.066406 7.042969 10.695312 7.042969 C 11.320312 7.042969 11.828125 7.554688 11.828125 8.179688 Z M 11.828125 8.179688 "/>
<path style=" stroke:none;fill-rule:nonzero;fill:rgb(100%,100%,100%);fill-opacity:1;" d="M 6.453125 8.179688 C 6.453125 8.808594 5.941406 9.316406 5.316406 9.316406 C 4.6875 9.316406 4.179688 8.808594 4.179688 8.179688 C 4.179688 7.554688 4.6875 7.042969 5.316406 7.042969 C 5.941406 7.042969 6.453125 7.554688 6.453125 8.179688 Z M 6.453125 8.179688 "/>
<path style=" stroke:none;fill-rule:nonzero;fill:rgb(25.490196%,25.098039%,25.882353%);fill-opacity:1;" d="M 6.171875 8.257812 C 6.171875 8.675781 5.835938 9.015625 5.417969 9.015625 C 4.996094 9.015625 4.660156 8.675781 4.660156 8.257812 C 4.660156 7.839844 4.996094 7.5 5.417969 7.5 C 5.835938 7.5 6.171875 7.839844 6.171875 8.257812 Z M 6.171875 8.257812 "/>
<path style=" stroke:none;fill-rule:nonzero;fill:rgb(25.490196%,25.098039%,25.882353%);fill-opacity:1;" d="M 11.351562 8.257812 C 11.351562 8.675781 11.011719 9.015625 10.59375 9.015625 C 10.175781 9.015625 9.835938 8.675781 9.835938 8.257812 C 9.835938 7.839844 10.175781 7.5 10.59375 7.5 C 11.011719 7.5 11.351562 7.839844 11.351562 8.257812 Z M 11.351562 8.257812 "/>
</g>
</svg>
